<?xml version="1.0" encoding="utf-8"?>
<!-- Generator: Adobe Illustrator 27.0.0, SVG Export Plug-In . SVG Version: 6.00 Build 0)  -->
<svg version="1.1" id="Layer_1" xmlns="http://www.w3.org/2000/svg" xmlns:xlink="http://www.w3.org/1999/xlink" x="0px" y="0px"
	 viewBox="0 0 500 500" style="enable-background:new 0 0 500 500;" xml:space="preserve">
<style type="text/css">
	.st0{fill:#FFFFFF;stroke:#000000;stroke-width:5;stroke-miterlimit:10;}
	.st1{stroke:#000000;stroke-width:5;stroke-miterlimit:10;}
</style>
<path class="st0" d="M411.6,329.7H106.9c-16.9,0-30.5-13.7-30.5-30.5V147.6c0-16.9,13.7-30.5,30.5-30.5h304.7
	c16.9,0,30.5,13.7,30.5,30.5v151.6C442.2,316,428.5,329.7,411.6,329.7z"/>
<circle class="st1" cx="154.1" cy="187.4" r="25.1"/>
<path class="st1" d="M191.6,279.6h-75c0-30,16.8-54.3,37.5-54.3S191.6,249.6,191.6,279.6z"/>
<path d="M412.8,197.4H217.4c-3.7,0-6.7-3-6.7-6.7v-11.6c0-3.7,3-6.7,6.7-6.7h195.4c3.7,0,6.7,3,6.7,6.7v11.6
	C419.4,194.5,416.5,197.4,412.8,197.4z"/>
<path d="M412.8,233.4H217.4c-3.7,0-6.7-3-6.7-6.7v-11.6c0-3.7,3-6.7,6.7-6.7h195.4c3.7,0,6.7,3,6.7,6.7v11.6
	C419.4,230.4,416.5,233.4,412.8,233.4z"/>
<path d="M412.8,269.3H217.4c-3.7,0-6.7-3-6.7-6.7v-11.6c0-3.7,3-6.7,6.7-6.7h195.4c3.7,0,6.7,3,6.7,6.7v11.6
	C419.4,266.3,416.5,269.3,412.8,269.3z"/>
</svg>
